<svg width="984" height="984" viewBox="0 0 984 984" fill="none" xmlns="http://www.w3.org/2000/svg">
<path d="M549.072 223.152V192.254L525.928 190.286C524.575 185.454 522.66 180.797 520.221 176.412L535.158 158.7L513.313 136.855L495.601 151.792C491.253 149.344 486.628 147.421 481.825 146.065L479.857 122.921H448.704L446.736 146.065C441.933 147.421 437.309 149.344 432.96 151.792L415.248 136.855L393.403 158.7L408.34 176.412C405.902 180.797 403.986 185.454 402.633 190.286L379.49 192.254V223.152L402.633 225.12C403.993 229.918 405.909 234.541 408.34 238.896L393.403 256.608L415.248 278.452L432.96 263.515C437.309 265.963 441.933 267.886 446.736 269.242L448.704 292.386H479.602L481.57 269.242C486.404 267.888 491.062 265.965 495.444 263.515L513.156 278.452L535.001 256.608L520.064 238.896C522.495 234.541 524.411 229.918 525.771 225.12L549.072 223.152ZM464.251 243.599C457.152 243.599 450.211 241.494 444.308 237.549C438.405 233.605 433.804 227.999 431.087 221.44C428.37 214.88 427.66 207.663 429.045 200.7C430.43 193.736 433.849 187.34 438.869 182.32C443.889 177.3 450.285 173.881 457.248 172.496C464.211 171.111 471.429 171.822 477.988 174.539C484.547 177.256 490.154 181.857 494.098 187.76C498.042 193.663 500.148 200.603 500.148 207.703C500.145 212.423 499.212 217.096 497.402 221.455C495.593 225.814 492.941 229.774 489.6 233.107C486.259 236.441 482.294 239.084 477.931 240.884C473.568 242.684 468.892 243.607 464.173 243.599H464.251Z" stroke="white" stroke-linecap="round" stroke-linejoin="round"/>
<path d="M881.054 525.141V510.342L869.954 509.377C869.301 507.062 868.383 504.83 867.219 502.726L874.382 494.204L863.952 483.734L855.45 490.898C853.349 489.725 851.116 488.807 848.798 488.162L847.834 477.063H833.015L832.07 488.162C829.751 488.804 827.518 489.722 825.419 490.898L816.897 483.734L806.427 494.204L813.591 502.726C812.412 504.826 811.487 507.059 810.836 509.377L799.736 510.342V525.141L810.836 526.105C811.487 528.424 812.412 530.657 813.591 532.757L806.368 541.2L816.838 551.67L825.359 544.506C827.459 545.682 829.692 546.601 832.011 547.242L832.956 558.341H847.775L848.739 547.242C851.057 546.597 853.29 545.679 855.391 544.506L863.893 551.67L874.382 541.2L867.219 532.679C868.383 530.574 869.301 528.342 869.954 526.027L881.054 525.141ZM840.375 534.981C836.969 534.985 833.637 533.978 830.803 532.089C827.969 530.199 825.758 527.511 824.452 524.365C823.146 521.218 822.802 517.755 823.464 514.414C824.126 511.072 825.765 508.002 828.172 505.592C830.58 503.181 833.648 501.539 836.989 500.873C840.33 500.207 843.793 500.547 846.941 501.85C850.089 503.153 852.779 505.36 854.672 508.192C856.565 511.024 857.576 514.354 857.576 517.761C857.573 520.022 857.125 522.261 856.257 524.349C855.39 526.438 854.119 528.335 852.518 529.932C850.917 531.529 849.017 532.795 846.927 533.658C844.837 534.521 842.597 534.964 840.336 534.961L840.375 534.981Z" stroke="white" stroke-linecap="round" stroke-linejoin="round"/>
<path d="M869.856 255.446C871.427 248.645 871.21 241.552 869.224 234.86C867.239 228.168 863.553 222.104 858.527 217.26C853.5 212.416 847.304 208.957 840.543 207.22C833.782 205.483 826.686 205.527 819.948 207.348C815.842 200.068 809.494 194.31 801.849 190.931C794.204 187.553 785.672 186.735 777.525 188.601C769.378 190.466 762.052 194.914 756.638 201.282C751.225 207.651 748.015 215.597 747.486 223.939C743.202 223.12 738.795 223.195 734.542 224.159C730.289 225.124 726.281 226.957 722.77 229.545C719.259 232.132 716.32 235.417 714.139 239.193C711.957 242.97 710.58 247.157 710.094 251.491C705.707 251.952 701.651 254.034 698.718 257.328C695.785 260.623 694.187 264.893 694.236 269.303C694.285 273.714 695.978 277.947 698.984 281.175C701.99 284.403 706.092 286.394 710.487 286.757H858.638C862.266 286.731 865.798 285.591 868.757 283.491C871.716 281.392 873.959 278.435 875.182 275.02C876.406 271.604 876.551 267.896 875.599 264.395C874.646 260.894 872.642 257.771 869.856 255.446Z" stroke="white" stroke-linecap="round" stroke-linejoin="round"/>
<path d="M788.44 273.217V314.053" stroke="white" stroke-linecap="round" stroke-linejoin="round"/>
<path d="M788.44 248.735V265.05" stroke="white" stroke-linecap="round" stroke-linejoin="round"/>
<path d="M788.44 233.464V242.202" stroke="white" stroke-linecap="round" stroke-linejoin="round"/>
<path d="M780.725 309.291L788.44 318.836L796.154 309.291" stroke="white" stroke-linecap="round" stroke-linejoin="round"/>
<path d="M418.476 734.359C420.042 727.556 419.821 720.464 417.832 713.772C415.844 707.081 412.156 701.018 407.129 696.175C402.101 691.332 395.905 687.873 389.144 686.136C382.383 684.398 375.287 684.442 368.547 686.261C364.446 678.976 358.098 673.212 350.451 669.831C342.805 666.45 334.27 665.633 326.121 667.501C317.972 669.37 310.645 673.824 305.236 680.199C299.826 686.573 296.623 694.527 296.105 702.871C294.159 702.499 292.183 702.308 290.201 702.3C282.416 702.295 274.901 705.157 269.093 710.341C263.284 715.525 259.589 722.668 258.713 730.404C254.327 730.863 250.269 732.942 247.335 736.235C244.4 739.528 242.8 743.797 242.847 748.207C242.893 752.617 244.584 756.852 247.588 760.081C250.591 763.311 254.692 765.304 259.087 765.67H407.376C410.999 765.631 414.523 764.483 417.472 762.379C420.422 760.275 422.655 757.318 423.872 753.905C425.088 750.492 425.228 746.789 424.274 743.294C423.32 739.799 421.316 736.68 418.535 734.359H418.476Z" stroke="white" stroke-linecap="round" stroke-linejoin="round"/>
<path d="M337 757.975V717.159" stroke="white" stroke-linecap="round" stroke-linejoin="round"/>
<path d="M337 782.477V766.142" stroke="white" stroke-linecap="round" stroke-linejoin="round"/>
<path d="M337 797.748V789.01" stroke="white" stroke-linecap="round" stroke-linejoin="round"/>
<path d="M344.715 721.921L337 712.377L329.286 721.921" stroke="white" stroke-linecap="round" stroke-linejoin="round"/>
<path d="M105.249 216.283H600.102C602.315 216.283 604.438 217.162 606.003 218.727C607.567 220.292 608.447 222.414 608.447 224.628V247.968H96.9043V224.628C96.9043 222.414 97.7834 220.292 99.3483 218.727C100.913 217.162 103.036 216.283 105.249 216.283Z" stroke="white" stroke-linecap="round" stroke-linejoin="round"/>
<path d="M636.313 253.813H119.3V617.637H636.313V253.813Z" stroke="white" stroke-linecap="round" stroke-linejoin="round"/>
<path d="M644.225 232.106C644.225 233.663 643.763 235.185 642.898 236.479C642.033 237.774 640.804 238.783 639.365 239.379C637.927 239.975 636.344 240.13 634.817 239.827C633.29 239.523 631.887 238.773 630.786 237.672C629.685 236.571 628.936 235.169 628.632 233.642C628.328 232.115 628.484 230.532 629.08 229.093C629.676 227.655 630.685 226.426 631.979 225.561C633.274 224.696 634.796 224.234 636.353 224.234C638.441 224.234 640.443 225.063 641.919 226.54C643.395 228.016 644.225 230.018 644.225 232.106Z" stroke="white" stroke-linecap="round" stroke-linejoin="round"/>
<path d="M616.358 232.106C616.358 233.663 615.896 235.185 615.031 236.479C614.166 237.774 612.937 238.783 611.498 239.379C610.06 239.975 608.477 240.13 606.95 239.827C605.423 239.523 604.02 238.773 602.919 237.672C601.819 236.571 601.069 235.169 600.765 233.642C600.461 232.115 600.617 230.532 601.213 229.093C601.809 227.655 602.818 226.426 604.112 225.561C605.407 224.696 606.929 224.234 608.486 224.234C610.574 224.234 612.576 225.063 614.052 226.54C615.528 228.016 616.358 230.018 616.358 232.106Z" stroke="white" stroke-linecap="round" stroke-linejoin="round"/>
<path d="M588.432 232.106C588.432 233.663 587.97 235.185 587.105 236.479C586.24 237.774 585.011 238.783 583.572 239.379C582.134 239.975 580.551 240.13 579.024 239.827C577.497 239.523 576.095 238.773 574.994 237.672C573.893 236.571 573.143 235.169 572.839 233.642C572.536 232.115 572.691 230.532 573.287 229.093C573.883 227.655 574.892 226.426 576.187 225.561C577.481 224.696 579.003 224.234 580.56 224.234C582.648 224.234 584.65 225.063 586.126 226.54C587.603 228.016 588.432 230.018 588.432 232.106Z" stroke="white" stroke-linecap="round" stroke-linejoin="round"/>
<path d="M620.648 269.419H600.181" stroke="white" stroke-width="2" stroke-linecap="round" stroke-linejoin="round"/>
<path d="M620.648 277.724H600.181" stroke="white" stroke-width="2" stroke-linecap="round" stroke-linejoin="round"/>
<path d="M620.648 286.029H600.181" stroke="white" stroke-width="2" stroke-linecap="round" stroke-linejoin="round"/>
<path d="M155.098 484.089H310.039" stroke="white" stroke-width="2" stroke-linecap="round" stroke-linejoin="round"/>
<path d="M155.098 496.31H310.039" stroke="white" stroke-width="2" stroke-linecap="round" stroke-linejoin="round"/>
<path d="M155.098 508.748H277.272" stroke="white" stroke-width="2" stroke-linecap="round" stroke-linejoin="round"/>
<path d="M483.656 257.906V258.89" stroke="white" stroke-linecap="round" stroke-linejoin="round"/>
<path d="M483.656 264.794V607.679" stroke="white" stroke-linecap="round" stroke-linejoin="round" stroke-dasharray="1 3"/>
<path d="M483.656 610.631V611.615" stroke="white" stroke-linecap="round" stroke-linejoin="round"/>
<path d="M125.519 536.044H126.503" stroke="white" stroke-linecap="round" stroke-linejoin="round"/>
<path d="M132.387 536.044H624.466" stroke="white" stroke-linecap="round" stroke-linejoin="round" stroke-dasharray="1 2.99"/>
<path d="M627.418 536.044H628.402" stroke="white" stroke-linecap="round" stroke-linejoin="round"/>
<path d="M487.06 532.639H480.271V539.429H487.06V532.639Z" fill="white" stroke="white" stroke-linecap="round" stroke-linejoin="round"/>
<path d="M456.556 470.824H365.91" stroke="white" stroke-linecap="round" stroke-linejoin="round"/>
<path d="M458.308 512.743C458.308 512.743 458.308 470.608 411.233 470.608C364.159 470.608 364.08 512.743 364.08 512.743" stroke="white" stroke-linecap="round" stroke-linejoin="round"/>
<path d="M458.308 516.718C460.503 516.718 462.283 514.938 462.283 512.743C462.283 510.547 460.503 508.767 458.308 508.767C456.112 508.767 454.333 510.547 454.333 512.743C454.333 514.938 456.112 516.718 458.308 516.718Z" fill="white" stroke="white" stroke-linecap="round" stroke-linejoin="round"/>
<path d="M360.144 512.743C360.144 511.964 360.375 511.203 360.807 510.556C361.24 509.909 361.855 509.404 362.574 509.106C363.293 508.808 364.084 508.731 364.848 508.882C365.611 509.034 366.313 509.409 366.863 509.96C367.414 510.51 367.789 511.211 367.94 511.975C368.092 512.738 368.014 513.53 367.716 514.249C367.419 514.968 366.914 515.583 366.267 516.015C365.62 516.448 364.859 516.679 364.08 516.679C363.036 516.679 362.035 516.264 361.297 515.526C360.559 514.788 360.144 513.787 360.144 512.743Z" fill="white" stroke="white" stroke-linecap="round" stroke-linejoin="round"/>
<path d="M454.825 474.091H461.791V467.124H454.825V474.091Z" fill="white" stroke="white" stroke-linecap="round" stroke-linejoin="round"/>
<path d="M407.75 474.091H414.717V467.124H407.75V474.091Z" fill="white" stroke="white" stroke-linecap="round" stroke-linejoin="round"/>
<path d="M360.675 474.091H367.642V467.124H360.675V474.091Z" fill="white" stroke="white" stroke-linecap="round" stroke-linejoin="round"/>
<path d="M211.422 344.144V330.211L201.012 329.325C200.393 327.148 199.528 325.048 198.433 323.067L205.164 315.077L195.324 305.237L187.314 311.967C185.34 310.858 183.239 309.992 181.056 309.389L180.151 298.959H166.257L165.351 309.389C163.174 309.99 161.079 310.856 159.113 311.967L151.103 305.237L141.263 315.077L147.994 323.067C146.89 325.044 146.025 327.145 145.416 329.325L134.985 330.211V344.144L145.416 345.03C146.028 347.209 146.894 349.309 147.994 351.288L141.263 359.278L151.103 369.118L159.113 362.387C161.066 363.496 163.148 364.362 165.312 364.966L166.217 375.396H180.131L181.036 364.966C183.212 364.361 185.307 363.495 187.275 362.387L195.285 369.118L205.125 359.278L198.394 351.288C199.486 349.305 200.351 347.206 200.972 345.03L211.422 344.144ZM173.184 353.354C169.984 353.354 166.857 352.406 164.197 350.628C161.536 348.851 159.463 346.324 158.238 343.368C157.014 340.412 156.694 337.159 157.318 334.021C157.942 330.883 159.483 328.001 161.745 325.739C164.008 323.476 166.89 321.935 170.028 321.311C173.166 320.687 176.419 321.007 179.375 322.232C182.331 323.456 184.857 325.53 186.635 328.19C188.412 330.85 189.361 333.978 189.361 337.177C189.361 341.468 187.657 345.582 184.623 348.616C181.589 351.65 177.474 353.354 173.184 353.354Z" stroke="white" stroke-linecap="round" stroke-linejoin="round"/>
<path d="M258.733 375.357V365.832L251.589 365.202C251.178 363.713 250.59 362.28 249.838 360.931L254.443 355.46L247.692 348.73L242.221 353.335C240.87 352.584 239.437 351.99 237.951 351.564L237.341 344.4H227.816L227.186 351.544C225.7 351.97 224.267 352.564 222.915 353.315L217.444 348.71L210.694 355.441L215.319 360.912C214.552 362.255 213.957 363.69 213.548 365.182L206.404 365.812V375.337L213.548 375.947C213.953 377.44 214.548 378.876 215.319 380.218L210.694 385.728L217.444 392.459L222.915 387.853C224.267 388.604 225.7 389.198 227.186 389.625L227.816 396.749H237.341L237.951 389.625C239.437 389.198 240.87 388.604 242.221 387.853L247.692 392.459L254.443 385.728L249.936 380.237C250.692 378.891 251.28 377.456 251.687 375.967L258.733 375.357ZM232.578 381.654C230.385 381.658 228.24 381.011 226.415 379.795C224.59 378.579 223.167 376.849 222.326 374.824C221.485 372.798 221.264 370.569 221.691 368.418C222.118 366.267 223.173 364.291 224.724 362.74C226.275 361.189 228.251 360.133 230.402 359.707C232.553 359.28 234.782 359.501 236.808 360.342C238.833 361.183 240.563 362.606 241.779 364.431C242.995 366.256 243.642 368.401 243.638 370.594C243.633 373.526 242.466 376.336 240.393 378.409C238.32 380.482 235.51 381.649 232.578 381.654Z" stroke="white" stroke-linecap="round" stroke-linejoin="round"/>
<path d="M503.1 559.188H579.32" stroke="white" stroke-width="2" stroke-linecap="round" stroke-linejoin="round"/>
<path d="M503.1 571.409H579.32" stroke="white" stroke-width="2" stroke-linecap="round" stroke-linejoin="round"/>
<path d="M503.1 583.847H546.553" stroke="white" stroke-width="2" stroke-linecap="round" stroke-linejoin="round"/>
<path d="M402.672 588.924H362.545C359.935 588.924 357.432 587.887 355.587 586.042C353.742 584.197 352.705 581.694 352.705 579.084C352.705 576.474 353.742 573.971 355.587 572.126C357.432 570.281 359.935 569.244 362.545 569.244H402.672C405.282 569.244 407.785 570.281 409.63 572.126C411.476 573.971 412.512 576.474 412.512 579.084C412.512 581.694 411.476 584.197 409.63 586.042C407.785 587.887 405.282 588.924 402.672 588.924Z" stroke="white" stroke-linecap="round" stroke-linejoin="round"/>
<path d="M477.457 588.924H437.329C434.719 588.924 432.216 587.887 430.371 586.042C428.526 584.197 427.489 581.694 427.489 579.084C427.489 576.474 428.526 573.971 430.371 572.126C432.216 570.281 434.719 569.244 437.329 569.244H477.457C480.066 569.244 482.569 570.281 484.414 572.126C486.26 573.971 487.297 576.474 487.297 579.084C487.297 581.694 486.26 584.197 484.414 586.042C482.569 587.887 480.066 588.924 477.457 588.924Z" stroke="white" stroke-linecap="round" stroke-linejoin="round"/>
<path d="M593.765 377.797H508.669V462.893H593.765V377.797Z" stroke="white" stroke-linecap="round" stroke-linejoin="round"/>
<path d="M508.669 377.797L593.765 462.893" stroke="white" stroke-linecap="round" stroke-linejoin="round"/>
<path d="M593.765 377.797L508.669 462.893" stroke="white" stroke-linecap="round" stroke-linejoin="round"/>
<path d="M542.046 281.188V301.045L533.289 309.803H513.432V281.188H542.046Z" stroke="white" stroke-linecap="round" stroke-linejoin="round"/>
<path d="M542.046 301.045L533.289 309.803V301.045H542.046Z" fill="white" stroke="white" stroke-linecap="round" stroke-linejoin="round"/>
<path d="M237.734 434.751V454.608L228.977 463.385H209.12V434.751H237.734Z" stroke="white" stroke-linecap="round" stroke-linejoin="round"/>
<path d="M237.734 454.608L228.977 463.385V454.608H237.734Z" fill="white" stroke="white" stroke-linecap="round" stroke-linejoin="round"/>
<path d="M129.612 557.101V576.959L120.855 585.716H100.978V557.101H129.612Z" stroke="white" stroke-linecap="round" stroke-linejoin="round"/>
<path d="M129.612 576.959L120.855 585.716V576.959H129.612Z" fill="white" stroke="white" stroke-linecap="round" stroke-linejoin="round"/>
<path d="M686.182 327.239H580.58V393.423H686.182V327.239Z" stroke="white" stroke-linecap="round" stroke-linejoin="round"/>
<path d="M686.182 327.239H580.58V337.295H686.182V327.239Z" stroke="white" stroke-linecap="round" stroke-linejoin="round"/>
<path d="M591.344 345.778H618.345" stroke="white" stroke-linecap="round" stroke-linejoin="round"/>
<path d="M604.845 353.315H651.565" stroke="white" stroke-linecap="round" stroke-linejoin="round"/>
<path d="M598.882 360.341H612.638" stroke="white" stroke-linecap="round" stroke-linejoin="round"/>
<path d="M604.845 368.626H636.313" stroke="white" stroke-linecap="round" stroke-linejoin="round"/>
<path d="M591.344 376.144H618.345" stroke="white" stroke-linecap="round" stroke-linejoin="round"/>
<path d="M289.02 593.529H183.417V659.713H289.02V593.529Z" stroke="white" stroke-linecap="round" stroke-linejoin="round"/>
<path d="M289.02 593.529H183.417V603.586H289.02V593.529Z" stroke="white" stroke-linecap="round" stroke-linejoin="round"/>
<path d="M194.202 612.087H221.183" stroke="white" stroke-linecap="round" stroke-linejoin="round"/>
<path d="M207.683 619.605H254.403" stroke="white" stroke-linecap="round" stroke-linejoin="round"/>
<path d="M201.72 626.631H215.476" stroke="white" stroke-linecap="round" stroke-linejoin="round"/>
<path d="M207.683 634.916H239.151" stroke="white" stroke-linecap="round" stroke-linejoin="round"/>
<path d="M194.202 642.454H221.183" stroke="white" stroke-linecap="round" stroke-linejoin="round"/>
<path d="M328.656 114.144H231.634C230.497 114.149 229.409 114.603 228.606 115.406C227.802 116.21 227.348 117.298 227.343 118.434V163.698C227.348 164.833 227.803 165.919 228.607 166.719C229.411 167.519 230.499 167.969 231.634 167.969H275.126L280.086 185.681L285.065 167.969H328.656C329.79 167.969 330.879 167.519 331.683 166.719C332.487 165.919 332.941 164.833 332.946 163.698V118.434C332.941 117.298 332.487 116.21 331.684 115.406C330.88 114.603 329.792 114.149 328.656 114.144Z" stroke="white" stroke-linecap="round" stroke-linejoin="round"/>
<path d="M243.441 127.093H316.749" stroke="white" stroke-width="2" stroke-linecap="round" stroke-linejoin="round"/>
<path d="M243.441 136.382H316.749" stroke="white" stroke-width="2" stroke-linecap="round" stroke-linejoin="round"/>
<path d="M243.441 145.671H316.749" stroke="white" stroke-width="2" stroke-linecap="round" stroke-linejoin="round"/>
<path d="M243.441 154.96H298.683" stroke="white" stroke-width="2" stroke-linecap="round" stroke-linejoin="round"/>
<path d="M487.808 436.069C477.398 436.955 464.192 424.517 464.192 424.517C463.939 424.779 463.629 424.978 463.285 425.098C462.942 425.219 462.575 425.258 462.214 425.212C461.853 425.166 461.508 425.037 461.206 424.834C460.903 424.632 460.652 424.361 460.473 424.045C458.78 421.605 451.44 415.956 451.026 411.076C450.613 406.195 459.272 398.284 459.272 398.284C452.601 400.094 451.892 396.178 451.892 396.178C451.892 396.178 463.13 386.909 467.066 386.653C468.601 386.555 475.292 390.412 481.766 395.607C488.536 401.059 501.25 420.247 501.25 420.247C501.25 420.247 544.25 451.479 555.114 459.469C569.461 470.017 586.464 488.733 586.464 488.733C586.464 488.733 643.536 514.475 659.28 528.624L637.986 579.045C637.986 579.045 586.09 544.27 580.914 535.453C575.738 526.637 570.543 531.931 565.347 526.164C560.152 520.398 555.173 513.805 555.173 513.805C545.932 509.344 537.546 503.296 530.396 495.936C518.273 483.479 507.587 464.448 500.876 452.994C497.401 446.724 492.995 441.017 487.808 436.069Z" stroke="white" stroke-linecap="round" stroke-linejoin="round"/>
<path d="M490.977 428.709C490.977 428.709 475.488 424.95 474.15 414.736C473.559 412.147 472.425 409.712 470.824 407.592C470.824 407.592 456.379 406.884 457.284 401L476.571 399.287C483.591 401.984 489.503 406.96 493.358 413.418" stroke="white" stroke-linecap="round" stroke-linejoin="round"/>
<path d="M464.173 424.517C464.86 423.242 465.089 421.769 464.822 420.345C464.822 420.345 469.073 419.558 468.601 415.799C468.601 415.799 474.898 415.032 470.824 407.593" stroke="white" stroke-linecap="round" stroke-linejoin="round"/>
<path d="M468.601 415.799C468.601 415.799 460.118 409.521 459.174 406.648" stroke="white" stroke-linecap="round" stroke-linejoin="round"/>
<path d="M464.822 420.345C464.822 420.345 455.789 414.835 455.631 411.627" stroke="white" stroke-linecap="round" stroke-linejoin="round"/>
<path d="M466.888 392.045C466.888 392.045 464.015 397.201 459.252 398.284" stroke="white" stroke-linecap="round" stroke-linejoin="round"/>
<path d="M465.452 394.053C466.962 394.842 468.386 395.785 469.703 396.867" stroke="white" stroke-linecap="round" stroke-linejoin="round"/>
<path d="M784.602 718.182C784.108 718.257 784.108 718.257 784.108 718.257L784.108 718.26L784.11 718.27L784.116 718.313L784.141 718.483C784.163 718.632 784.195 718.855 784.236 719.145C784.318 719.726 784.435 720.578 784.576 721.66C784.858 723.826 785.235 726.916 785.616 730.61C786.378 738 787.155 747.801 787.217 757.462C787.278 767.134 786.621 776.617 784.539 783.393C783.498 786.783 782.116 789.44 780.338 791.114C778.585 792.764 776.424 793.483 773.714 792.967C768.022 791.883 755.53 787.871 739.951 782.441C724.388 777.016 705.785 770.193 687.898 763.504C670.01 756.816 652.84 750.265 640.141 745.385C633.792 742.945 628.56 740.923 624.916 739.512C623.094 738.806 621.669 738.252 620.7 737.875C620.352 737.74 620.063 737.628 619.835 737.539C620.004 737.318 620.222 737.031 620.486 736.685C621.159 735.798 622.126 734.521 623.298 732.96C625.643 729.836 628.812 725.573 632.109 721.014C635.404 716.455 638.829 711.598 641.685 707.288C644.534 702.988 646.839 699.199 647.872 696.79C648.165 696.11 648.343 694.858 648.453 693.2C648.564 691.513 648.606 689.328 648.59 686.724C648.557 681.514 648.288 674.595 647.851 666.566C646.978 650.508 645.434 629.986 643.764 609.763C642.093 589.54 640.296 569.612 638.916 554.74C638.227 547.304 637.641 541.132 637.228 536.819C637.022 534.663 636.859 532.971 636.747 531.818C636.701 531.346 636.664 530.964 636.636 530.678C636.64 530.678 636.645 530.679 636.649 530.679C637.067 530.734 637.685 530.816 638.484 530.922C640.081 531.135 642.401 531.449 645.294 531.851C651.079 532.654 659.153 533.809 668.306 535.217C686.615 538.033 709.229 541.858 726.488 545.898C749.846 551.722 772.716 559.354 794.891 568.725C801.548 592.914 798.893 630.135 794.537 661.423C792.355 677.101 789.749 691.264 787.689 701.507C786.659 706.628 785.765 710.769 785.13 713.629C784.812 715.059 784.558 716.169 784.384 716.921C784.297 717.297 784.23 717.583 784.185 717.776L784.133 717.993L784.12 718.048L784.117 718.061L784.116 718.065C784.116 718.065 784.116 718.066 784.602 718.182ZM784.602 718.182L784.116 718.066L784.093 718.16L784.108 718.257L784.602 718.182Z" stroke="white"/>
<path d="M748.057 551.493C748.057 551.493 751.186 557.397 742.959 560.486C721.646 568.358 698.935 561.411 701.356 553.067C702.281 549.879 707.555 553.067 707.26 541.259C707.115 539.439 706.627 537.663 705.823 536.024C704.32 532.831 702.507 529.792 700.411 526.952C698.137 523.79 703.001 527.409 700.411 524.5C700.411 524.5 726.041 520.952 738.5 517C741.041 530.024 742.664 522.465 748.057 551.493Z" stroke="white" stroke-linecap="round" stroke-linejoin="round"/>
<path d="M522.289 799.988L522.288 799.987C518.977 795.104 513.252 784.562 511.493 772.816C509.738 761.093 511.934 748.22 524.385 738.513C526.507 736.875 528.761 735.416 531.124 734.151L531.126 734.149C533.173 733.041 536.753 732.476 541.55 732.387C546.322 732.299 552.211 732.682 558.81 733.407C572.007 734.856 587.993 737.667 603.45 740.773C618.905 743.879 633.821 747.277 644.873 749.899C650.4 751.21 654.96 752.327 658.138 753.116C659.727 753.511 660.971 753.823 661.817 754.037C662.24 754.144 662.564 754.226 662.782 754.282L663.028 754.345L663.091 754.361L663.106 754.365L663.11 754.366C663.111 754.366 663.111 754.366 663.236 753.882L663.111 754.366L663.32 754.42L663.503 754.304L663.503 754.304L663.504 754.304L663.507 754.301L663.522 754.292L663.581 754.256C663.633 754.223 663.709 754.176 663.808 754.115C664.006 753.994 664.292 753.821 664.643 753.614C665.347 753.2 666.31 752.652 667.354 752.115C668.399 751.577 669.514 751.056 670.521 750.69C671.553 750.317 672.389 750.138 672.914 750.206L672.914 750.206C676.644 750.681 679.872 752.367 684.066 754.557C684.266 754.662 684.468 754.767 684.672 754.874C689.149 757.208 694.676 760.007 702.832 762.333C705.779 763.175 709.938 762.989 714.743 762.444C717.148 762.172 719.737 761.806 722.443 761.424L722.474 761.419C725.193 761.035 728.033 760.635 730.937 760.292C742.58 758.92 755.133 758.507 764.881 763.787L764.883 763.789C767.04 764.942 769.029 766.385 770.795 768.078L770.796 768.078C780.014 776.885 787.992 787.269 792.015 798.122C796.032 808.958 796.104 820.246 789.549 830.942C786.298 836.225 779.688 840.873 770.926 844.851C762.181 848.823 751.365 852.094 739.796 854.664C716.656 859.805 690.571 862.123 672.164 861.642C663.017 861.403 649.522 858.105 634.272 853.097C619.035 848.094 602.095 841.4 586.076 834.399C570.058 827.399 554.971 820.096 543.442 813.876C537.677 810.766 532.808 807.931 529.16 805.542C527.335 804.348 525.823 803.269 524.658 802.327C523.484 801.378 522.696 800.593 522.289 799.988Z" stroke="white"/>
<mask id="mask0_389_15" style="mask-type:luminance" maskUnits="userSpaceOnUse" x="510" y="731" width="286" height="132">
<path d="M522.288 799.987L522.289 799.988C522.696 800.593 523.484 801.378 524.658 802.327C525.823 803.269 527.335 804.348 529.16 805.542C532.808 807.931 537.677 810.766 543.442 813.876C554.971 820.096 570.058 827.399 586.076 834.399C602.095 841.4 619.035 848.094 634.272 853.097C649.522 858.105 663.017 861.403 672.164 861.642C690.571 862.123 716.656 859.805 739.796 854.664C751.365 852.094 762.181 848.823 770.926 844.851C779.688 840.873 786.298 836.225 789.549 830.942L522.288 799.987ZM522.288 799.987C518.977 795.104 513.252 784.562 511.493 772.816C509.738 761.093 511.934 748.22 524.385 738.513L522.288 799.987Z" stroke="white"/>
</mask>
<g mask="url(#mask0_389_15)">
<path opacity="0.3" d="M765.119 763.348C744.829 761.99 726.743 766.241 714.108 773.7C699.132 782.556 628.402 816.622 628.402 816.622C628.56 812.961 632.496 805.581 632.496 805.581C625.844 799.677 608.447 795.052 608.447 795.052C594.966 783.539 541.535 749.198 524.078 738.118C526.222 736.463 528.5 734.988 530.888 733.71C548.186 724.342 663.236 753.882 663.236 753.882C663.236 753.882 670.36 749.375 672.977 749.71C681.007 750.733 686.753 757.227 702.97 761.852C714.384 765.099 745.321 752.622 765.119 763.348Z" fill="white" fill-opacity="0.7"/>
</g>
<path d="M789.975 831.204C776.651 852.852 709.051 863.106 672.151 862.141C635.251 861.177 529.077 810.973 521.874 800.268C515.203 790.428 498.809 757.818 524.078 738.118C526.222 736.463 528.5 734.988 530.888 733.71C548.186 724.342 663.236 753.882 663.236 753.882C663.236 753.882 670.36 749.375 672.977 749.71C681.007 750.733 686.753 757.227 702.97 761.852C714.325 765.099 745.321 752.622 765.119 763.348C767.316 764.523 769.342 765.993 771.141 767.717C789.64 785.389 803.279 809.497 789.975 831.204Z" stroke="white" stroke-linecap="round" stroke-linejoin="round"/>
<path d="M769.232 850.806L770.925 858.225C770.925 858.225 766.398 871.056 746.502 873.162C726.605 875.268 714.817 879.657 705.174 880.227C700.133 880.625 695.066 880.546 690.04 879.991L688.072 877.079L769.232 850.806Z" stroke="white" stroke-linecap="round" stroke-linejoin="round"/>
<path d="M768.479 852.996L768.479 852.998C768.303 854.699 767.353 856.329 765.704 857.892C764.055 859.455 761.739 860.921 758.911 862.286C753.258 865.017 745.651 867.305 737.497 869.191C721.277 872.68 704.854 875.142 688.324 876.564L654.532 850.043L683.426 830.001C683.452 830.012 683.479 830.024 683.508 830.036C683.73 830.129 684.057 830.265 684.48 830.436C685.328 830.78 686.563 831.267 688.116 831.844C691.223 832.997 695.604 834.509 700.706 835.944C710.897 838.81 724.013 841.384 735.591 840.145C735.592 840.144 735.593 840.144 735.593 840.144L735.637 840.14C738.4 839.866 741.114 839.596 743.747 839.596H743.754L743.762 839.596C750.914 839.38 757.427 840.048 761.984 842.129C764.255 843.166 766.013 844.542 767.136 846.311C768.255 848.073 768.769 850.267 768.479 852.996Z" stroke="white"/>
<path d="M653.691 850.019L688.17 877.079C704.789 875.658 721.3 873.187 737.606 869.679C753.941 865.9 768.209 860.488 768.976 853.049C770.177 841.753 758.093 838.663 743.747 839.096C741.07 839.096 738.315 839.372 735.54 839.647C712.573 842.107 683.368 829.433 683.368 829.433L653.691 850.019Z" stroke="white" stroke-linecap="round" stroke-linejoin="round"/>
<path d="M768.479 852.977L768.479 852.978C768.304 854.679 767.353 856.309 765.704 857.872C764.055 859.436 761.739 860.901 758.912 862.267C753.346 864.955 745.887 867.214 737.878 869.083C733.977 861.128 735.317 853.933 737.744 848.605C740.01 843.632 743.214 840.307 743.957 839.571C751.032 839.373 757.468 840.047 761.984 842.109C764.255 843.147 766.014 844.523 767.136 846.291C768.255 848.053 768.769 850.248 768.479 852.977Z" stroke="white"/>
<path d="M725.956 855.627H726.054C726.278 855.638 726.502 855.604 726.713 855.527C726.923 855.451 727.117 855.333 727.281 855.181C727.446 855.029 727.579 854.846 727.673 854.642C727.766 854.438 727.818 854.218 727.826 853.994C728.383 849.158 730.449 844.621 733.73 841.025C733.888 840.868 734.013 840.681 734.099 840.475C734.185 840.269 734.229 840.048 734.229 839.824C734.229 839.601 734.185 839.38 734.099 839.174C734.013 838.968 733.888 838.781 733.73 838.624C733.409 838.309 732.978 838.133 732.529 838.133C732.08 838.133 731.649 838.309 731.329 838.624C727.47 842.809 725.073 848.134 724.5 853.797C724.46 854.231 724.59 854.664 724.861 855.004C725.132 855.345 725.524 855.568 725.956 855.627Z" fill="white" stroke="white" stroke-linecap="round" stroke-linejoin="round"/>
<path d="M719.127 856.08H719.265C719.489 856.085 719.711 856.046 719.92 855.964C720.129 855.883 720.319 855.761 720.48 855.605C720.641 855.45 720.77 855.264 720.858 855.058C720.947 854.852 720.994 854.631 720.996 854.407C721.387 849.493 723.207 844.8 726.231 840.907C726.397 840.737 726.525 840.535 726.609 840.313C726.692 840.09 726.728 839.854 726.715 839.617C726.702 839.38 726.64 839.149 726.532 838.937C726.425 838.726 726.275 838.539 726.092 838.388C725.908 838.238 725.696 838.127 725.468 838.063C725.239 837.999 725 837.983 724.765 838.016C724.53 838.05 724.305 838.131 724.104 838.256C723.902 838.381 723.729 838.546 723.594 838.742C720.082 843.221 717.991 848.65 717.592 854.328C717.575 854.761 717.725 855.184 718.01 855.51C718.296 855.836 718.695 856.04 719.127 856.08Z" fill="white" stroke="white" stroke-linecap="round" stroke-linejoin="round"/>
<path d="M710.96 855.175C711.182 855.196 711.407 855.174 711.62 855.108C711.834 855.043 712.033 854.935 712.205 854.793C712.377 854.65 712.519 854.475 712.623 854.277C712.726 854.079 712.79 853.862 712.81 853.64C713.341 847.736 718.419 840.002 718.478 839.864C718.727 839.484 718.817 839.022 718.729 838.576C718.64 838.131 718.38 837.738 718.005 837.482C717.629 837.234 717.17 837.145 716.727 837.233C716.285 837.322 715.896 837.581 715.644 837.955C715.408 838.289 710.015 846.398 709.405 853.246C709.375 853.476 709.392 853.709 709.455 853.932C709.517 854.155 709.624 854.363 709.77 854.543C709.915 854.723 710.096 854.872 710.3 854.981C710.505 855.09 710.729 855.155 710.96 855.175Z" fill="white" stroke="white" stroke-linecap="round" stroke-linejoin="round"/>
<path d="M703.245 854.368C703.395 854.387 703.547 854.387 703.698 854.368C703.92 854.332 704.132 854.253 704.323 854.134C704.514 854.015 704.679 853.86 704.809 853.677C704.939 853.494 705.031 853.286 705.08 853.067C705.129 852.848 705.134 852.621 705.095 852.4C703.895 845.158 710.625 838.958 710.684 838.899C710.907 838.585 711.017 838.204 710.996 837.819C710.976 837.434 710.826 837.067 710.571 836.778C710.316 836.489 709.971 836.294 709.591 836.225C709.212 836.157 708.82 836.218 708.48 836.4C708.145 836.695 700.293 843.898 701.808 853.01C701.881 853.356 702.057 853.671 702.314 853.914C702.571 854.157 702.896 854.315 703.245 854.368Z" fill="white" stroke="white" stroke-linecap="round" stroke-linejoin="round"/>
<path d="M694.861 852.341C695.044 852.37 695.23 852.37 695.413 852.341C695.836 852.237 696.205 851.976 696.442 851.61C696.68 851.245 696.769 850.802 696.692 850.373C695.216 843.918 701.572 836.597 701.651 836.597C701.946 836.256 702.095 835.813 702.065 835.364C702.036 834.915 701.83 834.495 701.494 834.196C701.327 834.046 701.133 833.931 700.922 833.857C700.711 833.783 700.488 833.751 700.264 833.764C700.041 833.777 699.823 833.834 699.622 833.932C699.42 834.029 699.241 834.166 699.093 834.334C698.778 834.688 691.496 843.012 693.366 851.199C693.474 851.516 693.674 851.794 693.94 851.997C694.207 852.2 694.527 852.32 694.861 852.341Z" fill="white" stroke="white" stroke-linecap="round" stroke-linejoin="round"/>
<path d="M517.584 839.706L515.124 846.909C515.124 846.909 518.273 860.154 537.835 864.326C557.397 868.498 568.654 874.166 578.1 875.701C583.072 876.616 588.119 877.064 593.175 877.039L595.438 874.343L517.584 839.706Z" stroke="white" stroke-linecap="round" stroke-linejoin="round"/>
<path d="M604.879 828.05C604.91 828.041 604.938 828.032 604.964 828.024L631.656 850.998L595.28 873.815C578.99 870.668 562.913 866.499 547.146 861.333C539.238 858.602 531.9 855.527 526.548 852.216C523.871 850.56 521.714 848.858 520.23 847.129C518.747 845.4 517.966 843.679 517.966 841.969C517.966 839.221 518.709 837.091 520.008 835.454C521.311 833.813 523.205 832.629 525.573 831.836C530.325 830.245 536.873 830.266 543.967 831.228L543.968 831.228C546.609 831.58 549.312 832.069 552.039 832.638C563.419 835.089 576.729 833.905 587.161 832.123C592.384 831.231 596.898 830.186 600.108 829.365C601.713 828.954 602.992 828.599 603.871 828.346C604.31 828.22 604.649 828.119 604.879 828.05Z" stroke="white"/>
<mask id="mask1_389_15" style="mask-type:luminance" maskUnits="userSpaceOnUse" x="517" y="827" width="116" height="48">
<path d="M604.879 828.05C604.91 828.041 604.938 828.032 604.964 828.024L631.656 850.998L595.28 873.815C578.99 870.668 562.913 866.499 547.146 861.333C539.238 858.602 531.9 855.527 526.548 852.216C523.871 850.56 521.714 848.858 520.23 847.129C518.747 845.4 517.966 843.679 517.966 841.969C517.966 839.221 518.709 837.091 520.008 835.454C521.311 833.813 523.205 832.629 525.573 831.836C530.325 830.245 536.873 830.266 543.967 831.228L543.968 831.228C546.609 831.58 549.312 832.069 552.039 832.638C563.419 835.089 576.729 833.905 587.161 832.123C592.384 831.231 596.898 830.186 600.108 829.365C601.713 828.954 602.992 828.599 603.871 828.346C604.31 828.22 604.649 828.119 604.879 828.05Z" stroke="white"/>
</mask>
<g mask="url(#mask1_389_15)">
<path opacity="0.3" d="M632.496 851.062L610.67 864.838C592.973 859.341 577.454 848.414 566.312 833.605C579.468 833.316 592.526 831.271 605.14 827.524L632.496 851.062Z" fill="white" fill-opacity="0.7"/>
</g>
<path d="M632.496 851.062L595.379 874.343C579 871.188 562.837 867.001 546.986 861.807C531.144 856.336 517.466 849.448 517.466 841.969C517.466 830.594 529.805 828.803 544.034 830.732C546.691 831.086 549.407 831.578 552.142 832.149C574.715 837.01 605.081 827.465 605.081 827.465L632.496 851.062Z" stroke="white" stroke-linecap="round" stroke-linejoin="round"/>
<path d="M546.986 861.787C531.144 856.316 517.466 849.428 517.466 841.95C517.466 830.575 529.805 828.784 544.034 830.713C544.664 831.382 557.082 846.24 546.986 861.787Z" stroke="white" stroke-linecap="round" stroke-linejoin="round"/>
<path d="M560.053 849.054H559.955C559.503 849.024 559.08 848.817 558.778 848.479C558.477 848.14 558.32 847.697 558.341 847.244C558.31 842.386 556.747 837.661 553.874 833.743C553.707 833.571 553.578 833.366 553.495 833.141C553.412 832.916 553.377 832.675 553.393 832.436C553.409 832.197 553.475 831.963 553.587 831.751C553.699 831.539 553.854 831.352 554.043 831.204C554.231 831.056 554.449 830.949 554.682 830.89C554.914 830.831 555.157 830.822 555.393 830.863C555.63 830.903 555.855 830.994 556.054 831.127C556.254 831.261 556.423 831.434 556.55 831.637C559.946 836.182 561.77 841.708 561.746 847.381C561.741 847.827 561.56 848.252 561.243 848.566C560.927 848.879 560.499 849.054 560.053 849.054Z" fill="white" stroke="white" stroke-linecap="round" stroke-linejoin="round"/>
<path d="M566.784 850.176H566.627C566.176 850.136 565.759 849.919 565.467 849.572C565.176 849.225 565.034 848.777 565.072 848.326C565.212 843.407 563.905 838.556 561.313 834.373C561.184 834.187 561.093 833.977 561.044 833.756C560.996 833.534 560.992 833.306 561.032 833.083C561.072 832.86 561.156 832.647 561.279 832.456C561.401 832.266 561.56 832.101 561.746 831.972C561.932 831.843 562.142 831.751 562.363 831.703C562.585 831.655 562.813 831.651 563.036 831.691C563.259 831.731 563.472 831.815 563.663 831.938C563.853 832.06 564.018 832.219 564.147 832.405C567.187 837.223 568.697 842.85 568.477 848.543C568.456 848.979 568.27 849.392 567.955 849.696C567.64 850 567.221 850.171 566.784 850.176Z" fill="white" stroke="white" stroke-linecap="round" stroke-linejoin="round"/>
<path d="M575.01 850.176C574.558 850.166 574.127 849.979 573.811 849.655C573.495 849.331 573.318 848.897 573.318 848.444C573.436 842.442 569.185 834.314 569.126 834.235C568.918 833.83 568.877 833.359 569.013 832.925C569.15 832.49 569.452 832.126 569.854 831.913C570.256 831.705 570.724 831.666 571.156 831.802C571.587 831.938 571.947 832.24 572.157 832.641C572.354 832.995 576.86 841.615 576.742 848.503C576.732 848.954 576.544 849.382 576.22 849.695C575.896 850.009 575.461 850.181 575.01 850.176Z" fill="white" stroke="white" stroke-linecap="round" stroke-linejoin="round"/>
<path d="M582.764 850.176H582.312C581.876 850.052 581.508 849.761 581.287 849.367C581.066 848.972 581.009 848.506 581.131 848.07C583.099 841.005 577.057 834.117 576.998 834.058C576.827 833.895 576.692 833.699 576.6 833.481C576.509 833.264 576.464 833.03 576.467 832.794C576.471 832.558 576.523 832.325 576.62 832.11C576.718 831.896 576.859 831.703 577.034 831.546C577.21 831.388 577.416 831.268 577.64 831.194C577.864 831.119 578.101 831.092 578.336 831.114C578.571 831.135 578.799 831.205 579.005 831.319C579.212 831.433 579.393 831.588 579.537 831.775C579.832 832.11 586.897 840.1 584.417 848.995C584.301 849.341 584.079 849.641 583.782 849.853C583.485 850.065 583.129 850.178 582.764 850.176Z" fill="white" stroke="white" stroke-linecap="round" stroke-linejoin="round"/>
<path d="M591.325 849.054C591.136 849.062 590.948 849.028 590.774 848.956C590.56 848.887 590.361 848.776 590.191 848.629C590.02 848.482 589.881 848.302 589.782 848.1C589.683 847.898 589.625 847.677 589.613 847.453C589.601 847.228 589.634 847.003 589.711 846.791C591.856 840.533 586.287 832.602 586.248 832.523C586.087 832.343 585.965 832.132 585.891 831.902C585.818 831.672 585.794 831.429 585.82 831.189C585.847 830.95 585.924 830.718 586.047 830.51C586.17 830.302 586.335 830.123 586.531 829.983C586.728 829.843 586.953 829.747 587.189 829.7C587.426 829.653 587.67 829.657 587.905 829.711C588.14 829.765 588.362 829.868 588.554 830.013C588.747 830.159 588.906 830.344 589.023 830.555C589.298 830.929 595.655 839.982 592.959 847.932C592.834 848.264 592.61 848.549 592.318 848.75C592.026 848.951 591.679 849.057 591.325 849.054Z" fill="white" stroke="white" stroke-linecap="round" stroke-linejoin="round"/>
<path d="M529.235 795.072C538.346 807.844 565.367 821.955 592.211 833.586C597.011 841.538 602.674 848.936 609.096 855.647C625.667 872.69 632.417 863.145 632.417 863.145C632.417 863.145 642.887 861.964 658.335 859.859C658.978 861.357 660.1 862.6 661.524 863.394C662.948 864.188 664.595 864.488 666.207 864.247C668.175 863.932 672.111 861.059 676.461 857.261C715.486 851.357 768.445 841.517 782.733 830.063" stroke="white" stroke-linecap="round" stroke-linejoin="round"/>
<path d="M767.52 770.748C760.77 763.328 754.02 762.994 739.85 763.997C739.85 763.997 702.871 775.805 677.071 791.333C651.27 806.86 613.642 823.332 613.642 823.332C613.642 823.332 602.169 820.007 594.179 823.332C594.179 823.332 588.57 823.765 592.329 833.566" stroke="white" stroke-linecap="round" stroke-linejoin="round"/>
<path d="M784.681 815.087C784.681 815.087 784.878 826.521 768.661 834.432" stroke="white" stroke-linecap="round" stroke-linejoin="round"/>
<path d="M605.829 767.382C605.829 767.382 631.413 785.881 636.55 798.083C641.578 800.202 646.434 802.709 651.073 805.581" stroke="white" stroke-linecap="round" stroke-linejoin="round"/>
<path d="M638.4 782.752C640.276 788.07 640.59 793.813 639.305 799.303" stroke="white" stroke-linecap="round" stroke-linejoin="round"/>
<path d="M632.496 770.748C633.89 772.775 635.114 774.915 636.156 777.144" stroke="white" stroke-linecap="round" stroke-linejoin="round"/>
<path d="M668.943 769.055C668.943 769.055 677.504 780.509 679.629 789.798" stroke="white" stroke-linecap="round" stroke-linejoin="round"/>
<path d="M716.628 838.25C719.812 838.063 722.98 837.668 726.113 837.069" stroke="white" stroke-linecap="round" stroke-linejoin="round"/>
<path d="M636.313 830.043C660.572 834.849 685.181 837.672 709.897 838.486" stroke="white" stroke-linecap="round" stroke-linejoin="round"/>
<path d="M809.478 656.505C809.478 656.505 804.853 737.193 799.402 741.818C793.95 746.443 785.35 747.879 769.075 749.237C752.8 750.595 680.81 755.004 680.81 755.004L673.056 731.88C673.056 731.88 711.334 727.944 728.318 721.744C741.123 717.367 754.223 713.908 767.52 711.393C767.52 711.393 764.293 691.103 764.293 682.365V641.273" stroke="white" stroke-linecap="round" stroke-linejoin="round"/>
<mask id="path-116-inside-1_389_15" fill="white">
<path d="M795.308 568.358C812.843 579.163 818.019 604.137 811.957 657.45C811.957 657.45 817.133 663.747 809.478 666.896C809.478 666.896 780.804 656.171 767.481 663.57C754.157 670.97 757.641 653.356 757.641 653.356C757.641 653.356 752.15 604.314 764.292 595.438"/>
</mask>
<path d="M811.957 657.45L810.964 657.337L810.916 657.758L811.185 658.085L811.957 657.45ZM809.478 666.896L809.127 667.833L809.495 667.97L809.858 667.821L809.478 666.896ZM757.641 653.356L758.622 653.55L758.652 653.399L758.634 653.245L757.641 653.356ZM794.784 569.21C803.246 574.424 808.807 583.082 811.499 597.151C814.198 611.257 813.991 630.707 810.964 657.337L812.951 657.563C815.985 630.879 816.221 611.186 813.464 596.775C810.699 582.329 804.905 573.097 795.833 567.507L794.784 569.21ZM811.957 657.45C811.185 658.085 811.185 658.084 811.184 658.084C811.184 658.084 811.184 658.084 811.184 658.084C811.184 658.083 811.183 658.083 811.183 658.083C811.183 658.083 811.183 658.083 811.184 658.083C811.185 658.084 811.186 658.087 811.19 658.091C811.196 658.098 811.206 658.112 811.221 658.131C811.25 658.168 811.294 658.227 811.349 658.305C811.46 658.462 811.614 658.692 811.778 658.979C812.111 659.561 812.461 660.333 812.603 661.161C812.742 661.977 812.676 662.811 812.227 663.595C811.776 664.384 810.868 665.243 809.097 665.971L809.858 667.821C811.915 666.975 813.232 665.866 813.963 664.588C814.697 663.306 814.771 661.976 814.574 660.823C814.379 659.683 813.913 658.684 813.515 657.987C813.313 657.634 813.122 657.348 812.98 657.148C812.909 657.047 812.85 656.968 812.807 656.912C812.785 656.884 812.767 656.861 812.754 656.845C812.748 656.837 812.743 656.83 812.739 656.825C812.737 656.823 812.735 656.821 812.733 656.819C812.733 656.818 812.732 656.817 812.731 656.817C812.731 656.816 812.731 656.816 812.731 656.816C812.73 656.815 812.73 656.815 811.957 657.45ZM809.478 666.896C809.828 665.96 809.828 665.959 809.827 665.959C809.827 665.959 809.827 665.959 809.826 665.959C809.825 665.958 809.823 665.958 809.821 665.957C809.818 665.956 809.812 665.953 809.804 665.951C809.79 665.945 809.768 665.937 809.74 665.927C809.683 665.906 809.6 665.876 809.491 665.837C809.274 665.758 808.955 665.645 808.545 665.504C807.726 665.222 806.543 664.829 805.083 664.38C802.165 663.483 798.13 662.364 793.67 661.478C789.215 660.592 784.31 659.932 779.656 659.968C775.016 660.004 770.534 660.73 766.995 662.696L767.966 664.444C771.089 662.71 775.187 662.003 779.671 661.968C784.141 661.934 788.902 662.568 793.28 663.439C797.655 664.309 801.621 665.409 804.496 666.292C805.932 666.733 807.093 667.12 807.894 667.395C808.295 667.533 808.605 667.643 808.814 667.718C808.918 667.756 808.998 667.785 809.05 667.804C809.077 667.814 809.097 667.821 809.109 667.826C809.116 667.828 809.121 667.83 809.124 667.831C809.125 667.832 809.126 667.832 809.127 667.833C809.127 667.833 809.127 667.833 809.127 667.833C809.127 667.833 809.127 667.833 809.478 666.896ZM766.995 662.696C763.745 664.501 761.811 664.608 760.69 664.166C759.601 663.736 758.909 662.633 758.539 661.015C758.175 659.421 758.186 657.567 758.302 656.07C758.359 655.33 758.44 654.694 758.506 654.245C758.539 654.021 758.569 653.844 758.59 653.725C758.6 653.665 758.609 653.62 758.614 653.59C758.617 653.576 758.619 653.565 758.62 653.558C758.621 653.555 758.621 653.552 758.622 653.551C758.622 653.55 758.622 653.55 758.622 653.55C758.622 653.55 758.622 653.55 758.622 653.55C758.622 653.55 758.622 653.55 757.641 653.356C756.66 653.162 756.66 653.163 756.659 653.163C756.659 653.163 756.659 653.164 756.659 653.164C756.659 653.165 756.659 653.167 756.659 653.168C756.658 653.171 756.657 653.175 756.656 653.18C756.654 653.19 756.652 653.205 756.648 653.223C756.641 653.26 756.632 653.312 756.62 653.38C756.596 653.515 756.564 653.709 756.528 653.952C756.456 654.437 756.369 655.12 756.308 655.916C756.186 657.49 756.159 659.577 756.59 661.461C757.015 663.321 757.95 665.235 759.955 666.026C761.928 666.805 764.555 666.339 767.966 664.444L766.995 662.696ZM757.641 653.356C758.634 653.245 758.634 653.245 758.634 653.245C758.634 653.244 758.634 653.244 758.634 653.243C758.634 653.242 758.634 653.24 758.634 653.237C758.633 653.232 758.632 653.223 758.631 653.212C758.628 653.189 758.624 653.154 758.62 653.108C758.61 653.017 758.595 652.88 758.577 652.701C758.54 652.343 758.487 651.815 758.424 651.139C758.298 649.788 758.132 647.845 757.97 645.486C757.646 640.766 757.341 634.387 757.413 627.736C757.485 621.078 757.936 614.188 759.11 608.432C759.697 605.555 760.459 602.991 761.428 600.894C762.4 598.791 763.551 597.219 764.883 596.245L763.702 594.631C761.998 595.876 760.665 597.778 759.613 600.056C758.557 602.34 757.756 605.064 757.151 608.032C755.939 613.968 755.486 621.003 755.413 627.715C755.34 634.435 755.649 640.87 755.975 645.623C756.138 648.001 756.306 649.959 756.433 651.324C756.496 652.007 756.55 652.541 756.587 652.906C756.606 653.088 756.621 653.228 756.631 653.322C756.636 653.37 756.64 653.406 756.643 653.43C756.644 653.442 756.645 653.451 756.646 653.458C756.646 653.461 756.646 653.463 756.647 653.465C756.647 653.466 756.647 653.466 756.647 653.467C756.647 653.467 756.647 653.468 757.641 653.356Z" fill="white" mask="url(#path-116-inside-1_389_15)"/>
<path d="M762.679 587.94C762.679 587.94 745.813 605.475 760.711 649.794C759.771 653.411 759.113 657.096 758.743 660.815C758.743 663.787 762.817 665.322 762.817 665.322" stroke="white" stroke-linecap="round" stroke-linejoin="round"/>
<path d="M742.959 617.637C742.959 617.637 744.18 639.285 757.601 648.672" stroke="white" stroke-linecap="round" stroke-linejoin="round"/>
<path d="M747.289 567.374C747.289 567.374 721.134 577.392 700.333 566.292C687.993 559.719 693.071 549.151 693.071 549.151" stroke="white" stroke-linecap="round" stroke-linejoin="round"/>
<path d="M559.207 770.787H701.572C704.788 770.788 707.99 770.371 711.098 769.547L739.181 762.187C739.569 762.086 739.913 761.86 740.159 761.543C740.405 761.226 740.539 760.836 740.539 760.435C740.539 759.95 740.346 759.484 740.003 759.141C739.66 758.798 739.194 758.605 738.709 758.605H553.323C552.841 758.61 552.381 758.805 552.042 759.148C551.703 759.491 551.512 759.953 551.512 760.435V763.092C551.512 765.133 552.323 767.09 553.766 768.533C555.209 769.976 557.167 770.787 559.207 770.787Z" stroke="white" stroke-linecap="round" stroke-linejoin="round"/>
<path d="M545.136 763.702H687.895C688.454 763.728 689.01 763.614 689.515 763.372C690.02 763.13 690.456 762.766 690.786 762.314C691.115 761.861 691.327 761.334 691.403 760.78C691.479 760.225 691.416 759.661 691.221 759.136L664.751 656.151C664.396 654.887 663.655 653.766 662.632 652.944C661.609 652.121 660.354 651.64 659.044 651.565H516.246C515.686 651.543 515.129 651.66 514.625 651.905C514.121 652.149 513.685 652.515 513.356 652.968C513.027 653.422 512.815 653.95 512.739 654.505C512.663 655.06 512.725 655.625 512.92 656.151L539.409 759.136C539.763 760.402 540.507 761.525 541.535 762.344C542.563 763.164 543.823 763.639 545.136 763.702Z" stroke="white" stroke-linecap="round" stroke-linejoin="round"/>
<path d="M521.284 655.226H518.588" stroke="white" stroke-linecap="round" stroke-linejoin="round"/>
<path d="M542.204 655.226H528.27" stroke="white" stroke-linecap="round" stroke-linejoin="round"/>
<path d="M684.431 750.694L661.051 659.811C660.7 658.549 659.963 657.428 658.943 656.606C657.923 655.784 656.672 655.301 655.364 655.226H545.353" stroke="white" stroke-linecap="round" stroke-linejoin="round"/>
<path d="M686.458 758.605L685.868 756.342" stroke="white" stroke-linecap="round" stroke-linejoin="round"/>
<path d="M588.058 710.232C588.155 711.065 588.326 711.888 588.57 712.692C590.38 718.891 596.186 722.669 601.519 721.095C606.852 719.52 609.706 713.223 607.896 707.024C606.085 700.824 600.24 697.046 594.907 698.62C594.284 698.811 593.684 699.069 593.116 699.388C593.409 701.491 593.088 703.633 592.19 705.557C591.293 707.482 589.858 709.105 588.058 710.232Z" stroke="white" stroke-linecap="round" stroke-linejoin="round"/>
<path d="M689.832 537.906C690.191 538.154 690.476 538.353 690.681 538.495L652.752 605.656L607.505 565.786C607.503 565.747 607.501 565.704 607.499 565.657C607.488 565.437 607.468 565.126 607.427 564.761C607.346 564.034 607.183 563.07 606.853 562.163C606.526 561.266 606.011 560.355 605.178 559.825C604.311 559.272 603.204 559.196 601.855 559.771C601.843 559.775 601.836 559.778 601.831 559.779C601.814 559.77 601.752 559.728 601.663 559.585C601.479 559.291 601.296 558.754 601.135 557.95C600.816 556.362 600.623 553.947 600.542 550.944C600.38 544.95 600.666 536.716 601.226 528.311C601.787 519.907 602.621 511.348 603.553 504.704C604.02 501.38 604.51 498.546 605 496.454C605.246 495.407 605.488 494.558 605.724 493.932C605.842 493.618 605.954 493.371 606.059 493.186C606.167 492.994 606.25 492.901 606.297 492.865C606.718 492.532 607.091 492.387 607.415 492.353C607.738 492.319 608.054 492.391 608.372 492.558C609.028 492.905 609.649 493.641 610.196 494.546C610.734 495.438 611.161 496.429 611.456 497.205C611.602 497.591 611.714 497.921 611.79 498.153C611.828 498.269 611.856 498.36 611.875 498.422C611.884 498.453 611.891 498.477 611.896 498.492L611.901 498.509L611.902 498.513L611.902 498.514L611.902 498.514L611.902 498.514L611.969 498.746L612.192 498.839C616.161 500.475 620.252 501.799 624.427 502.798C626.189 503.232 627.94 504.262 629.794 505.629C630.987 506.51 632.194 507.507 633.461 508.554C634.169 509.139 634.897 509.741 635.652 510.346C639.823 513.69 644.69 517.041 651.019 517.727C654.022 518.057 658.021 519.515 662.367 521.555C666.7 523.588 671.331 526.176 675.584 528.726C679.836 531.276 683.703 533.783 686.508 535.654C687.91 536.589 689.046 537.365 689.832 537.906Z" stroke="white"/>
<path d="M277.252 279.239V278.255H278.236" stroke="white" stroke-linecap="round" stroke-linejoin="round"/>
<path d="M284.022 278.255H450.515" stroke="white" stroke-linecap="round" stroke-linejoin="round" stroke-dasharray="0.98 2.93"/>
<path d="M453.388 278.255H454.372V279.239" stroke="white" stroke-linecap="round" stroke-linejoin="round"/>
<path d="M454.392 285.143V392.399" stroke="white" stroke-linecap="round" stroke-linejoin="round" stroke-dasharray="1 3"/>
<path d="M454.372 395.352V396.336H453.388" stroke="white" stroke-linecap="round" stroke-linejoin="round"/>
<path d="M447.622 396.336H281.129" stroke="white" stroke-linecap="round" stroke-linejoin="round" stroke-dasharray="0.98 2.93"/>
<path d="M278.236 396.336H277.252V395.352" stroke="white" stroke-linecap="round" stroke-linejoin="round"/>
<path d="M277.271 389.448V282.192" stroke="white" stroke-linecap="round" stroke-linejoin="round" stroke-dasharray="1 3"/>
<path d="M365.832 281.168C367.44 281.168 368.744 279.864 368.744 278.256C368.744 276.647 367.44 275.343 365.832 275.343C364.223 275.343 362.919 276.647 362.919 278.256C362.919 279.864 364.223 281.168 365.832 281.168Z" fill="white" stroke="white" stroke-linecap="round" stroke-linejoin="round"/>
<path d="M277.272 340.208C278.88 340.208 280.184 338.904 280.184 337.296C280.184 335.687 278.88 334.383 277.272 334.383C275.663 334.383 274.359 335.687 274.359 337.296C274.359 338.904 275.663 340.208 277.272 340.208Z" fill="white" stroke="white" stroke-linecap="round" stroke-linejoin="round"/>
<path d="M365.832 399.248C367.44 399.248 368.744 397.944 368.744 396.335C368.744 394.727 367.44 393.423 365.832 393.423C364.223 393.423 362.919 394.727 362.919 396.335C362.919 397.944 364.223 399.248 365.832 399.248Z" fill="white" stroke="white" stroke-linecap="round" stroke-linejoin="round"/>
<path d="M454.392 340.208C456 340.208 457.304 338.904 457.304 337.296C457.304 335.687 456 334.383 454.392 334.383C452.783 334.383 451.479 335.687 451.479 337.296C451.479 338.904 452.783 340.208 454.392 340.208Z" fill="white" stroke="white" stroke-linecap="round" stroke-linejoin="round"/>
<path d="M457.777 392.951H450.987V399.74H457.777V392.951Z" fill="white" stroke="white" stroke-linecap="round" stroke-linejoin="round"/>
<path d="M457.777 274.871H450.987V281.66H457.777V274.871Z" fill="white" stroke="white" stroke-linecap="round" stroke-linejoin="round"/>
<path d="M280.657 392.951H273.867V399.74H280.657V392.951Z" fill="white" stroke="white" stroke-linecap="round" stroke-linejoin="round"/>
<path d="M280.657 274.871H273.867V281.66H280.657V274.871Z" fill="white" stroke="white" stroke-linecap="round" stroke-linejoin="round"/>
<path d="M443.174 288.706H289.021V386.653H443.174V288.706Z" stroke="white" stroke-linecap="round" stroke-linejoin="round"/>
<path d="M443.174 357.723L426.033 374.865L379.667 328.499L360.164 348.001L329.069 316.907L289.021 356.936V386.653H443.174V357.723Z" stroke="white" stroke-linecap="round" stroke-linejoin="round"/>
<path d="M411.233 327.396C417.244 327.396 422.116 322.524 422.116 316.513C422.116 310.503 417.244 305.63 411.233 305.63C405.223 305.63 400.35 310.503 400.35 316.513C400.35 322.524 405.223 327.396 411.233 327.396Z" stroke="white" stroke-linecap="round" stroke-linejoin="round"/>
<path d="M659.28 535.296C659.28 535.296 647.472 557.279 646.075 590.912" stroke="white" stroke-linecap="round" stroke-linejoin="round"/>
<path d="M624.564 550.509C624.564 550.509 628.087 569.205 638.34 582.744" stroke="white" stroke-linecap="round" stroke-linejoin="round"/>
<path d="M673.056 627.654C673.056 627.654 690.768 685.828 729.243 702.95" stroke="white" stroke-linecap="round" stroke-linejoin="round"/>
<path d="M738 515.5C738 515.5 740.959 521.895 749.5 494.5C733.5 476 722.748 473 719.5 470C700.765 464.49 705.272 439.277 698.443 453.467C692.657 465.609 695.393 475.705 694.074 479.779C692.579 484.344 678.763 488.221 678.763 491.351C678.763 493.929 686.419 498.337 686.419 498.337L684.175 505.146L686.281 506.268C686.281 506.268 682.345 521.599 684.175 527.011C685.474 530.947 694.074 527.011 698.443 523.232" stroke="white" stroke-linecap="round" stroke-linejoin="round"/>
<path d="M698.64 463.405C698.64 463.405 705.39 465.098 707.24 468.64" stroke="white" stroke-linecap="round" stroke-linejoin="round"/>
<path d="M699.821 478.972C699.526 480.94 699.978 482.652 700.844 482.77C701.71 482.888 702.615 481.392 702.911 479.405C703.206 477.417 702.733 475.725 701.887 475.607C701.041 475.488 700.116 476.984 699.821 478.972Z" fill="white"/>
<path d="M690.138 477.397C689.331 481.806 690.315 485.663 692.342 486.037C694.37 486.411 696.692 483.164 697.499 478.775C698.306 474.386 697.341 470.49 695.294 470.116C693.248 469.742 690.965 473.009 690.138 477.397Z" stroke="white" stroke-linecap="round" stroke-linejoin="round"/>
<path d="M775.02 455.083L775.063 455.291L775.242 455.404C782.886 460.247 785.931 468.124 787.051 474.86C787.61 478.223 787.686 481.285 787.619 483.508C787.607 483.915 787.59 484.293 787.57 484.64C787.557 484.61 787.544 484.581 787.531 484.551C787.136 483.657 786.645 482.744 786.168 481.928C785.691 481.11 785.225 480.384 784.878 479.861C784.705 479.6 784.561 479.39 784.46 479.244C784.41 479.171 784.37 479.115 784.343 479.076L784.312 479.032L784.304 479.02L784.301 479.017L784.301 479.016L784.301 479.016C784.301 479.016 784.301 479.016 783.894 479.306L784.301 479.016L783.419 479.451C783.416 479.452 783.416 479.452 783.415 479.452L783.416 479.453L783.416 479.453L783.419 479.465C783.421 479.471 783.423 479.478 783.425 479.486C783.428 479.498 783.432 479.512 783.436 479.529C783.451 479.59 783.472 479.685 783.497 479.816C783.545 480.078 783.605 480.484 783.644 481.04C783.722 482.151 783.716 483.862 783.37 486.223C782.676 490.945 780.617 498.27 775.128 508.592C769.686 518.825 762.261 523.242 756.214 525.114C753.184 526.051 750.494 526.352 748.563 526.418C747.598 526.451 746.824 526.425 746.294 526.392C746.039 526.376 745.84 526.358 745.704 526.344L738.514 515.79C738.734 515.643 738.979 515.44 739.239 515.198C739.772 514.7 740.415 513.995 741.109 513.148C742.501 511.452 744.134 509.149 745.572 506.704C747.008 504.263 748.266 501.655 748.888 499.351C749.497 497.091 749.547 494.923 748.26 493.582L748.259 493.581C746.288 491.539 744.18 490.599 742.121 490.365C740.072 490.132 738.11 490.601 736.421 491.31C734.732 492.02 733.294 492.979 732.282 493.756C731.798 494.128 731.409 494.46 731.133 494.707L728.971 490.945C729.531 488.741 729.447 486.04 729.028 483.253C728.595 480.37 727.795 477.348 726.924 474.607C726.053 471.864 725.109 469.392 724.382 467.606C724.019 466.712 723.709 465.99 723.491 465.49C723.382 465.24 723.295 465.046 723.235 464.914C723.206 464.848 723.183 464.797 723.167 464.763L723.149 464.724L723.145 464.714L723.143 464.712L723.143 464.711C723.143 464.711 723.143 464.711 722.689 464.92L723.143 464.711L722.609 463.556L722.214 464.765C721.452 467.096 721.418 469.595 722.102 471.932C715.463 469.174 710.864 464.197 707.888 459.797C706.328 457.49 705.22 455.351 704.502 453.789C704.144 453.009 703.883 452.374 703.712 451.935C703.627 451.716 703.564 451.546 703.523 451.431C703.502 451.374 703.487 451.331 703.477 451.302L703.467 451.271L703.464 451.264L703.464 451.262L703.464 451.262L703.464 451.262L703.122 450.237L702.562 451.16C700.866 453.955 699.482 456.925 698.433 460.019C697.189 458.834 696.551 456.97 696.239 455.233C696.065 454.264 695.998 453.367 695.974 452.712C695.963 452.385 695.962 452.12 695.964 451.937C695.965 451.846 695.967 451.776 695.968 451.729L695.97 451.676L695.971 451.664L695.971 451.661L695.971 451.661L695.971 451.661C695.971 451.661 695.971 451.661 695.97 451.661L695.027 451.408L692.962 455.425C692.956 454.961 692.959 454.42 692.981 453.813C693.059 451.685 693.368 448.764 694.294 445.589C696.142 439.249 700.441 431.903 710.286 427.813C720.165 423.708 729.263 424.778 735.906 426.881C739.227 427.933 741.93 429.242 743.802 430.287C744.737 430.809 745.463 431.265 745.954 431.589C746.2 431.752 746.387 431.881 746.511 431.968C746.573 432.012 746.62 432.046 746.65 432.068L746.684 432.093L746.692 432.099L746.693 432.1L746.693 432.1L746.694 432.1C746.694 432.1 746.694 432.1 746.694 432.1L747.411 431.425C746.107 429.449 743.778 427.748 741.828 426.558C741.65 426.449 741.474 426.345 741.303 426.244C748.863 427.953 756.028 431.125 762.389 435.591C768.894 440.275 773.402 447.232 775.02 455.083Z" stroke="white"/>
<path d="M697.499 478.775L732.529 486.037" stroke="white" stroke-linecap="round" stroke-linejoin="round"/>
</svg>
