<svg width="558" height="305" viewBox="0 0 558 305" fill="none" xmlns="http://www.w3.org/2000/svg">
<g id="heli">
<rect width="558" height="305" fill="white"/>
<g id="body">
<path d="M117.116 138.5L110 87H117.116L132.93 112.919H234.14L253.907 96.425H278.5L281.186 87.5891H292.651L294 96.425H329.023L344.047 108.206C382 108.206 387.669 147.773 392.279 151.208C394.651 152.975 399 159.455 399 162.989C399 167.701 396.233 178.894 380.023 184.784C373.427 187.181 326.3 187.4 290.674 186.541C282.303 186.34 274.566 186.078 268.14 185.772C262.006 185.48 262.997 185.146 259.837 184.784C249.927 183.648 238.039 173.187 234.926 162.989C232.873 156.263 232.058 149.652 232.163 145.906L132.93 128.234L129 138.5H117.116Z" fill="#349844"/>
<path d="M399 162.989C399 167.701 396.233 178.894 380.023 184.784C373.427 187.181 326.3 187.4 290.674 186.541C282.303 186.34 274.566 186.078 268.14 185.772C262.006 185.48 262.997 185.146 259.837 184.784C249.927 183.648 238.039 173.187 234.926 162.989M399 162.989C399 159.455 394.651 152.975 392.279 151.208C387.669 147.773 382 108.206 344.047 108.206L329.023 96.425H253.907L234.14 112.919H132.93L117.116 87H110L117.116 138.5H129L132.93 128.234L232.163 145.906C232.058 149.652 232.873 156.263 234.926 162.989M399 162.989H234.926M278.5 96.425L281.186 87.5891H292.651L294 96.425" stroke="black" stroke-width="5" stroke-linecap="round"/>
</g>
<path id="head" d="M291 76.6104C291 71.2157 284 72.4145 284 76.6104V88H291V76.6104Z" fill="#7D7D7D"/>
<path id="window" d="M299.005 132.186C299.245 114.783 307.509 108.865 311.611 108.081H327.818H341.625H345.5C370.33 106.252 389.561 135.911 392 151H348.66H341.625H327.818H311.611C307.07 151 298.765 149.589 299.005 132.186Z" fill="#7EE3F1" stroke="black" stroke-width="4"/>
<path id="long" d="M161.782 77H292.874H404.218L408 82H158L161.782 77Z" fill="#999999" stroke="black" stroke-width="5"/>
<path id="short" d="M204.496 77H291.017H364.504L367 82H202L204.496 77Z" fill="#808080" stroke="black" stroke-width="5"/>
<path id="legs" d="M270.82 200.2V187H276.786V200.2H344.001V188.2H349.569V200.2H383C383 203.56 379.818 204.8 378.227 205H235V200.2H270.82Z" fill="#7D7D7D" stroke="black" stroke-width="5"/>
<line id="Line 1" x1="235" y1="146.5" x2="294" y2="146.5" stroke="#205228" stroke-width="5"/>
<line id="Line 2" x1="348.5" y1="110" x2="348.5" y2="149" stroke="black" stroke-width="5"/>
<line id="Line 3" x1="321.5" y1="110" x2="321.5" y2="149" stroke="black" stroke-width="5"/>
</g>
</svg>
