<svg width="558" height="305" viewBox="0 0 558 305" fill="none" xmlns="http://www.w3.org/2000/svg">
<g id="heli">
<path id="body" d="M121.07 120.055L110 85.0102H117.116L132.93 107.038H234.14L253.907 93.0205H279.093L281.186 85.5108H292.651L295.442 93.0205H329.023L344.047 103.033C382 103.033 387.669 136.661 392.279 139.58C394.651 141.082 399 146.589 399 149.593C399 153.598 396.233 163.11 380.023 168.117C373.427 170.154 326.3 170.34 290.674 169.61C282.303 169.439 274.566 169.217 268.14 168.956C262.006 168.708 262.997 168.425 259.837 168.117C249.927 167.151 238.039 158.26 234.926 149.593C232.873 143.877 232.058 138.258 232.163 135.074L132.93 123.56H121.07V120.055Z" fill="#349844"/>
<path id="head" d="M290.674 76.0113C290.674 71.5118 284.263 72.5117 284.263 76.0113V85.5108H290.674V76.0113Z" fill="#7D7D7D"/>
<path id="window" d="M299.005 123.811C299.245 108.837 307.509 103.744 311.611 103.07H327.818H341.625H345.5C370.33 101.496 389.561 127.016 392 140H348.66H341.625H327.818H311.611C307.07 140 298.765 138.786 299.005 123.811Z" fill="#8DEFFC"/>
<path id="long" d="M161.782 76H292.874H404.218L408 81H158L161.782 76Z" fill="#D9D9D9"/>
<path id="short" d="M204.496 76H291.017H364.504L367 81H202L204.496 76Z" fill="#D9D9D9"/>
<path id="legs" d="M270.82 180V169H276.786V180H344.001V170H349.569V180H383C383 182.8 379.818 183.833 378.227 184H235V180H270.82Z" fill="#7D7D7D"/>
<line id="Line 1" x1="235" y1="150.5" x2="399" y2="150.5" stroke="#205228" stroke-width="5"/>
<line id="Line 2" x1="347" y1="103" x2="347" y2="140" stroke="#205228" stroke-width="4"/>
<line id="Line 3" x1="321" y1="103" x2="321" y2="140" stroke="#205228" stroke-width="4"/>
</g>
</svg>
